<?xml version="1.0" encoding="iso-8859-1"?>
<!-- Generator: Adobe Illustrator 19.0.0, SVG Export Plug-In . SVG Version: 6.00 Build 0)  -->
<svg version="1.1" id="Capa_1" xmlns="http://www.w3.org/2000/svg" xmlns:xlink="http://www.w3.org/1999/xlink" x="0px" y="0px"
	 viewBox="0 0 448 448" style="enable-background:new 0 0 448 448;" xml:space="preserve">
<g>
	<g>
		<path d="M224,344.828c-5.402,0-10.694-0.186-16-0.346v96.346h32v-96.346C234.694,344.642,229.402,344.828,224,344.828z"/>
	</g>
</g>
<g>
	<g>
		<path d="M61.206,314.635l-43.518,87.037l28.625,14.313l44.974-89.947C80.475,322.618,70.409,318.816,61.206,314.635z"/>
	</g>
</g>
<g>
	<g>
		<path d="M386.794,314.635c-9.202,4.181-19.269,7.983-30.08,11.402l44.974,89.947l28.625-14.313L386.794,314.635z"/>
	</g>
</g>
<g>
	<g>
		<path d="M351.305,121.885C344.636,57.528,290.091,7.172,224,7.172S103.365,57.528,96.695,121.885
			C38.31,139.212,0,168.088,0,200.829c0,53.019,100.288,96,224,96s224-42.981,224-96C448,168.088,409.69,139.212,351.305,121.885z
			 M88,232.829c-13.255,0-24-10.745-24-24s10.745-24,24-24c13.255,0,24,10.745,24,24C112,222.084,101.255,232.829,88,232.829z
			 M180.61,129.79c2.919-4.771,13.021-3.906,22.562,1.934c9.541,5.839,14.909,14.439,11.99,19.21
			c-2.92,4.77-13.021,3.906-22.562-1.934C183.06,143.161,177.692,134.56,180.61,129.79z M224,264.829c-13.255,0-24-10.745-24-24
			s10.745-24,24-24c13.255,0,24,10.745,24,24S237.255,264.829,224,264.829z M255.316,149c-9.541,5.839-19.642,6.704-22.562,1.934
			c-2.919-4.77,2.45-13.371,11.991-19.21c9.541-5.839,19.642-6.705,22.562-1.934C270.226,134.56,264.857,143.161,255.316,149z
			 M320.001,145.46L320.001,145.46c-11.81,8.434-29.52,15.147-50.622,19.186c5.806-12.053,9.802-25.608,9.85-39.898
			C279.376,80.235,243.303,69.18,224,69.18c-19.303,0-55.46,11.054-55.311,55.567c0.047,14.282,4.039,27.83,9.84,39.878
			c-21.059-4.041-38.738-10.744-50.528-19.166v-10.287c0-52.938,43.062-96,96-96s96,43.062,96,96V145.46z M360,232.829
			c-13.255,0-24-10.745-24-24s10.745-24,24-24s24,10.745,24,24C384,222.084,373.255,232.829,360,232.829z"/>
	</g>
</g>
<g>
</g>
<g>
</g>
<g>
</g>
<g>
</g>
<g>
</g>
<g>
</g>
<g>
</g>
<g>
</g>
<g>
</g>
<g>
</g>
<g>
</g>
<g>
</g>
<g>
</g>
<g>
</g>
<g>
</g>
</svg>
