<svg xmlns="http://www.w3.org/2000/svg" data-name="Слой 1" viewBox="0 0 100 100" x="0px" y="0px"><path class="fill-to-change" d="M97.12,93.3a5.68,5.68,0,0,0-1.22-.74l-.49-.25a13.44,13.44,0,0,1-1.59-1.11,23.08,23.08,0,0,1-3-3l-.55-.61c-.74-.81-1.47-1.66-2.25-2.59A107.76,107.76,0,0,1,81.3,76c-5.43-8.15-11.54-18.52-14.71-24A62,62,0,0,0,62,45.17c-.74-1-1.46-1.87-2.16-2.74-.35-.44-.71-.88-1.07-1.3a42.2,42.2,0,0,0-6.3-6A42.36,42.36,0,0,0,45.39,31a7.54,7.54,0,0,0-3.76-.72,1.49,1.49,0,0,1-.89-.25,6.16,6.16,0,0,0-2.3-1,17.11,17.11,0,0,0-4-.28l-1,.05c-.32,0-.64,0-1,.07l-3.5.37a3.29,3.29,0,0,1-1.83-.34,2.8,2.8,0,0,1-.46-.28,4.28,4.28,0,0,1-.93-1,3.89,3.89,0,0,1-.55-1.33L25,25.79v0a1.51,1.51,0,0,0,.09-.38,1.67,1.67,0,0,0-.89-1.59,1.53,1.53,0,0,0,.13-.75,1.4,1.4,0,0,0-.26-.74,1.56,1.56,0,0,0-.59-.47l0,0a1.38,1.38,0,0,0,.26-1.31,2.14,2.14,0,0,0-.73-1,1.48,1.48,0,0,0,.21-.46h0A1.77,1.77,0,0,0,23.19,18a1.76,1.76,0,0,0-.87-.91h-.07a1.84,1.84,0,0,0-.07-.84,1.69,1.69,0,0,0-.9-1,.14.14,0,0,1-.07-.16,5.15,5.15,0,0,0,.16-1.46,3.06,3.06,0,0,0-1-2.24,1,1,0,0,1-.13-1.27l.84-1.18A6.1,6.1,0,0,1,25.4,6.36l.18,0a11.64,11.64,0,0,1,3.81.22,2.76,2.76,0,0,1,1.73,1.25l.33.55a4.38,4.38,0,0,0,1.62,1.55,1.92,1.92,0,0,0,2-.08,2.08,2.08,0,0,0,.86-1.23L36,8.28a2.17,2.17,0,0,0-1-2.4l-1.34-.82a11,11,0,0,0-4.26-1.53,19.72,19.72,0,0,0-5.74,0L23,3.67c-.5.08-1,.18-1.49.3l-5,1.22a7.18,7.18,0,0,0-1.21.41l-.46.2A19.75,19.75,0,0,0,10.6,8.34L7.89,10.48a29.4,29.4,0,0,0-2.3,2L2.83,15.23a1.62,1.62,0,0,0-.5,1.12l-.08,1.78a.81.81,0,0,0,.53.79l.54.2,1.25,1a1.82,1.82,0,0,0,.86.36,3,3,0,0,0,3-1.31.58.58,0,0,1,.28-.21l1.93-.58a2.2,2.2,0,0,1,1-.07l1,.17a3.64,3.64,0,0,1,1.57.66,2.32,2.32,0,0,1,.9,1.54l0,.3A34.41,34.41,0,0,0,16,25.37,8.09,8.09,0,0,1,16.2,28l-.14,2A7.42,7.42,0,0,0,17,33.86a2.68,2.68,0,0,1,.29,1.82c-.05.21.12.61.52,1.21a2.15,2.15,0,0,1,.47,1.44l-.05,1.15a9.78,9.78,0,0,0,3.51,8.14c.55.41,1.09.87,1.62,1.32L21,48.47c-.53-.07-1-.18-1.57-.29a9.25,9.25,0,0,0-4.06-.24c-.94.22-1.73,1.25-2.37,2.07l-.39.49a7.47,7.47,0,0,0-1.09,1.63,1.57,1.57,0,0,0-.13.8l.29,2.18a.24.24,0,0,0,.06.11v.26a.78.78,0,0,0,.63.78l.15,0a.76.76,0,0,0,.52-.21.68.68,0,0,0,.56.39h0a.68.68,0,0,0,.67-.54l.25-1.19,1-1.42a3.46,3.46,0,0,0,.36-.62l.73-1.63A.27.27,0,0,1,17,51l.29.2a13.93,13.93,0,0,0,2.57,1.55c1.09.45,2.27.94,3.49,1.36l.28.09.24.07L21.72,56a3.86,3.86,0,0,0-1.35,2.11,6,6,0,0,0-.17,1.4v2.88a2,2,0,0,0,.41,1.22l.7.9a.7.7,0,0,0,.81.22l.16-.06a.72.72,0,0,0,.46-.64l0-.16a.6.6,0,0,0,.27.06.86.86,0,0,0,.27-.05.71.71,0,0,0,.4-.87l-.29-.88.21-3.39c.05-.26.47-1.07,3.44-3.1a6.36,6.36,0,0,1,1.57-.77l.3-.1a36.75,36.75,0,0,0,5.28,5.16,33.41,33.41,0,0,0,3.46,2.3,4.6,4.6,0,0,0,.4,1.39l.22.46a10.51,10.51,0,0,1,1,4.47v.44a5,5,0,0,0,.4,1.86l.87,2A5.59,5.59,0,0,1,41,75.9l-.35,2.27-.69,2.93a5,5,0,0,1-1,2.07l-2,2.37a2.51,2.51,0,0,1-1.68.9l-1.7.19a5.18,5.18,0,0,0-3,1.19s0,.06,0,.08a1.8,1.8,0,0,0-.55.36l-.6.6a1.08,1.08,0,0,0-.28.46,1.84,1.84,0,0,0,.16,1.43,1.7,1.7,0,0,0,1.48.84h0l.47,0h0a1.24,1.24,0,0,0,1,.45h.05l.59,0a1.22,1.22,0,0,0,.56-.17A43.23,43.23,0,0,0,40,91.07l.91-.19A1.6,1.6,0,0,0,42,90a4.13,4.13,0,0,1,.72-1.09l1-1.09a2.23,2.23,0,0,0,.57-1.63l-.07-1a3.91,3.91,0,0,1,.25-1.66,6.49,6.49,0,0,1,1-1.65l1-1.29a5,5,0,0,0,1.07-2.93v-.11a2.69,2.69,0,0,0-.09-.8l-.19-.74a6.06,6.06,0,0,1,0-3l.4-1.69A13.19,13.19,0,0,0,51.48,74l.39.18a6.49,6.49,0,0,1,1.21.73l.05,0a27.72,27.72,0,0,0,2.86,2l1.26.76a3,3,0,0,1,1,1l.6,1,.89,2a1.32,1.32,0,0,1,.12.54l0,2.63a3.49,3.49,0,0,1-.31,1.42l-.69,1.47a4.75,4.75,0,0,1-1.54,1.87,3,3,0,0,1-1.65.58l-.48,0a2.78,2.78,0,0,0-1.75.75l-.73.69s0,0,0,.07a.91.91,0,0,0-.13.08l-.26.24a2.25,2.25,0,0,0-.75,1.55l0,.59a1,1,0,0,0,.29.75,1.74,1.74,0,0,0,1.21.49,2.33,2.33,0,0,0,.38,0v.28a.87.87,0,0,0,.46.81,1.77,1.77,0,0,0,.82.2,1.32,1.32,0,0,0,.34,0l.44-.09a1,1,0,0,0,.7-.5l.21-.12a2.25,2.25,0,0,1,.57-.19.88.88,0,0,0,.45.74,1.81,1.81,0,0,0,.82.2,1.27,1.27,0,0,0,.34,0l.45-.09a1,1,0,0,0,.68-.48h0l.58-.17A23.66,23.66,0,0,0,64,94.38a1,1,0,0,0,.57-.84l.11-1.32a1.4,1.4,0,0,1,.18-.6l1-1.74a5.46,5.46,0,0,0,.74-2.76,4.74,4.74,0,0,0-.39-1.89l-.19-.45a6.74,6.74,0,0,1-.41-4.13L66,79.08a2.62,2.62,0,0,0,0-1.15,2.92,2.92,0,0,0-1.31-1.83l-1-.61a1.42,1.42,0,0,1-.65-.85l-.14-.49a5.51,5.51,0,0,0-.7-1.52l-1.22-1.84a30.65,30.65,0,0,1,9.22,4.75c.55.41,1.11.85,1.67,1.3l.55.44c4.09,3.32,8.23,7.25,11,10a32.77,32.77,0,0,0,6.82,5.15l3.35,1.9c.58.32,1.17.61,1.84.91a2.59,2.59,0,0,0,1.13.29,1.84,1.84,0,0,0,.53-.08,1,1,0,0,0,.69-1.16A1.66,1.66,0,0,0,97.12,93.3Z"/></svg>
