<?xml version="1.0" encoding="utf-8"?>
<!-- Generator: Adobe Illustrator 20.1.0, SVG Export Plug-In . SVG Version: 6.00 Build 0)  -->
<svg version="1.1" id="Layer_1" xmlns="http://www.w3.org/2000/svg" xmlns:xlink="http://www.w3.org/1999/xlink" x="0px" y="0px"
	 viewBox="0 0 400 400" style="enable-background:new 0 0 400 400;" xml:space="preserve">
<style type="text/css">
	.st0{clip-path:url(#SVGID_2_);}
	.st1{clip-path:url(#SVGID_4_);}
</style>
<g>
	<defs>
		<rect id="SVGID_1_" width="400" height="400"/>
	</defs>
	<clipPath id="SVGID_2_">
		<use xlink:href="#SVGID_1_"  style="overflow:visible;"/>
	</clipPath>
	<path class="st0" d="M131.1,248.2c-0.8,0.8-1.3,2-1.3,3.2c0,1.7,0.9,3.1,2.2,3.9l70.1,33.5c3,1.5,4.3,3.5,4.3,6.3
		c0,3.8-3.1,6.8-6.8,6.8L122,302c-1.5,0-2.6,1.2-2.6,2.7c0,0.7,0.2,1.3,0.7,1.8c78.7,63.3,181.5,82,279.9,80.6V174.4
		C216.6,172.7,131.1,248.2,131.1,248.2 M235.5,267.3c-9.2,0-16.6-7.4-16.6-16.6c0-9.2,7.4-16.6,16.6-16.6c9.2,0,16.6,7.4,16.6,16.6
		C252.1,259.9,244.7,267.3,235.5,267.3"/>
</g>
<g>
	<defs>
		<rect id="SVGID_3_" width="400" height="400"/>
	</defs>
	<clipPath id="SVGID_4_">
		<use xlink:href="#SVGID_3_"  style="overflow:visible;"/>
	</clipPath>
	<path class="st1" d="M58.9,218.3L58.9,218.3c-14.4,13.1-36.7,12-49.8-2.4c-13.1-14.4-12-36.7,2.4-49.8c0,0,4-5.1,14.3-8.6l33-11.3
		l-31.7,36l0-12.9c-3,1.1-5.8,2.7-8.3,4.9c-9.9,9-10.7,24.4-1.6,34.3c9,9.9,24.4,10.7,34.3,1.6c31.6-28.5,65-62.8,100.8-94.8
		c-0.9-2-1.4-4.3-1.4-6.7c0-9.2,7.4-16.6,16.6-16.6c3.1,0,6.1,0.9,8.6,2.4c54.6-45,115.6-80.7,186.4-81.5
		c12.2-0.1,22.5,1.1,37.4,4.4v9.8c-14.9-3.2-24.4-4.9-36.7-4.7c-67.3,0.8-127,36.4-180.3,80.4c0.7,1.9,1.2,3.8,1.2,6
		c0,9.1-7.4,16.6-16.6,16.6c-3,0-6-0.7-8.4-2.1c-36.5,32.6-69.8,67.5-99.8,94.6"/>
</g>
</svg>
