<svg xmlns="http://www.w3.org/2000/svg" xmlns:xlink="http://www.w3.org/1999/xlink" version="1.1" x="0px" y="0px" viewBox="0 0 90 90" style="enable-background:new 0 0 90 90;" xml:space="preserve">
  <g>
    <path class="fill-to-change" d="M73.4384766,72.2609863L63.1845703,31.7131348H48.1621094V21.2055054   c2.293457-1.1606445,3.8730469-3.5348511,3.8730469-6.2765503c0-3.8798828-3.15625-7.0361328-7.0351563-7.0361328   c-3.8798828,0-7.0361328,3.15625-7.0361328,7.0361328c0,2.7419434,1.5799561,5.116333,3.8740234,6.2768555v10.5073242H26.8144531   L16.5615234,72.2609863h0.6248779l4.2159424,9.8461914h47.1943359l4.2168579-9.8461914H73.4384766z M39.9638672,14.9289551   c0-2.7768555,2.2587891-5.0361328,5.0361328-5.0361328c2.7763672,0,5.0351563,2.2592773,5.0351563,5.0361328   S47.7763672,19.9650879,45,19.9650879C42.2226563,19.9650879,39.9638672,17.7058105,39.9638672,14.9289551z M43.8378906,21.8607788   C44.2168579,21.9241333,44.6033325,21.9650879,45,21.9650879s0.7831421-0.0408936,1.1621094-0.1043091v9.852356h-2.3242188   V21.8607788z M28.3710938,33.7131348h33.2568359l9.2421875,36.5478516H19.1298828L28.3710938,33.7131348z M67.2783203,80.1071777   H22.7207031l-3.359375-7.8461914h51.2772217L67.2783203,80.1071777z"/>
    <path class="fill-to-change" d="M44.0009766,49.3508301c0-3.8789063-3.1552734-7.034668-7.0341797-7.034668s-7.0341797,3.1557617-7.0341797,7.034668   c0,3.878418,3.1552734,7.0341797,7.0341797,7.0341797S44.0009766,53.229248,44.0009766,49.3508301z M31.9326172,49.3508301   c0-2.7763672,2.2587891-5.034668,5.0341797-5.034668s5.0341797,2.2583008,5.0341797,5.034668   c0,2.7758789-2.2587891,5.0341797-5.0341797,5.0341797S31.9326172,52.126709,31.9326172,49.3508301z"/>
    <path class="fill-to-change" d="M38.3828125,49.3508301h2c0-1.8837891-1.5322266-3.4160156-3.4160156-3.4160156s-3.4160156,1.5322266-3.4160156,3.4160156   h2c0-0.7807617,0.6347656-1.4160156,1.4160156-1.4160156S38.3828125,48.5700684,38.3828125,49.3508301z"/>
    <path class="fill-to-change" d="M53.0322266,42.3161621c-3.8789063,0-7.0341797,3.1557617-7.0341797,7.034668   c0,3.878418,3.1552734,7.0341797,7.0341797,7.0341797s7.0341797-3.1557617,7.0341797-7.0341797   C60.0664063,45.4719238,56.9111328,42.3161621,53.0322266,42.3161621z M53.0322266,54.3850098   c-2.7753906,0-5.0341797-2.2583008-5.0341797-5.0341797c0-2.7763672,2.2587891-5.034668,5.0341797-5.034668   s5.0341797,2.2583008,5.0341797,5.034668C58.0664063,52.126709,55.8076172,54.3850098,53.0322266,54.3850098z"/>
    <path class="fill-to-change" d="M53.0322266,45.9348145c-1.8837891,0-3.4160156,1.5322266-3.4160156,3.4160156h2   c0-0.7807617,0.6347656-1.4160156,1.4160156-1.4160156s1.4160156,0.6352539,1.4160156,1.4160156h2   C56.4482422,47.467041,54.9160156,45.9348145,53.0322266,45.9348145z"/>
    <path class="fill-to-change" d="M51.0126953,58.0305176H38.9863281c-2.6865234,0-4.8720703,2.1860352-4.8720703,4.8725586   s2.1855469,4.8725586,4.8720703,4.8725586h12.0263672c2.6865234,0,4.8720703-2.1860352,4.8720703-4.8725586   S53.6992188,58.0305176,51.0126953,58.0305176z M46,60.0305176h2.7822266v5.7451172H46V60.0305176z M44,65.7756348h-2.7832031   v-5.7451172H44V65.7756348z M36.1142578,62.9030762c0-1.5839844,1.2880859-2.8725586,2.8720703-2.8725586h0.2304688v5.7451172   h-0.2304688C37.4023438,65.7756348,36.1142578,64.4870605,36.1142578,62.9030762z M51.0126953,65.7756348h-0.2304688v-5.7451172   h0.2304688c1.5839844,0,2.8720703,1.2885742,2.8720703,2.8725586S52.5966797,65.7756348,51.0126953,65.7756348z"/>
  </g>
</svg>
